<?xml version="1.0" encoding="UTF-8"?><svg id="b" xmlns="http://www.w3.org/2000/svg" xmlns:xlink="http://www.w3.org/1999/xlink" viewBox="0 0 316.89 467.8"><defs><radialGradient id="d" cx="182.86" cy="133.99" fx="182.86" fy="133.99" r="417.79" gradientUnits="userSpaceOnUse"><stop offset="0" stop-color="#fff"/><stop offset=".5" stop-color="#2fafe6"/><stop offset="1" stop-color="#32338f"/></radialGradient><radialGradient id="e" cx="200.92" cy="166.43" fx="200.92" fy="166.43" r="307.64" xlink:href="#d"/><radialGradient id="f" cx="175.87" cy="147.39" fx="175.87" fy="147.39" r="305.93" xlink:href="#d"/><radialGradient id="g" cx="141.29" cy="318.74" fx="141.29" fy="318.74" r="118.77" xlink:href="#d"/><radialGradient id="h" cx="47.11" cy="317.24" fx="47.11" fy="317.24" r="349.2" xlink:href="#d"/><radialGradient id="i" cx="179.38" cy="199.5" fx="179.38" fy="199.5" r="237.17" xlink:href="#d"/><radialGradient id="j" cx="158.14" cy="119.96" fx="158.14" fy="119.96" r="275.27" xlink:href="#d"/><radialGradient id="k" cx="134.09" cy="148.02" fx="134.09" fy="148.02" r="221.17" xlink:href="#d"/><radialGradient id="l" cx="119.72" cy="163.38" fx="119.72" fy="163.38" r="187.85" xlink:href="#d"/><radialGradient id="m" cx="-51.64" cy="216.83" fx="-51.64" fy="216.83" r="351.52" xlink:href="#d"/><radialGradient id="n" cx="151.32" cy="86.26" fx="151.32" fy="86.26" r="299.63" xlink:href="#d"/><radialGradient id="o" cx="170.86" cy="140.87" fx="170.86" fy="140.87" r="205.93" xlink:href="#d"/><radialGradient id="p" cx="139.1" cy="187.1" fx="139.1" fy="187.1" r="224.02" xlink:href="#d"/><radialGradient id="q" cx="128.41" cy="267.6" fx="128.41" fy="267.6" r="134.57" xlink:href="#d"/><radialGradient id="r" cx="-56.11" cy="354.32" fx="-56.11" fy="354.32" r="291.6" xlink:href="#d"/><radialGradient id="s" cx="162.34" cy="76.74" fx="162.34" fy="76.74" r="343.71" xlink:href="#d"/><radialGradient id="t" cx="263.23" cy="-272.28" fx="263.23" fy="-272.28" r="1170.15" xlink:href="#d"/><radialGradient id="u" cx="313.83" cy="-181.42" fx="313.83" fy="-181.42" r="861.64" xlink:href="#d"/><radialGradient id="v" cx="243.66" cy="-234.75" fx="243.66" fy="-234.75" r="856.84" xlink:href="#d"/><radialGradient id="w" cx="146.82" cy="245.2" fx="146.82" fy="245.2" r="332.64" xlink:href="#d"/><radialGradient id="x" cx="-116.96" cy="240.98" fx="-116.96" fy="240.98" r="978.03" xlink:href="#d"/><radialGradient id="y" cx="253.49" cy="-88.8" fx="253.49" fy="-88.8" r="664.26" xlink:href="#d"/><radialGradient id="z" cx="194" cy="-311.57" fx="194" fy="-311.57" r="770.97" xlink:href="#d"/><radialGradient id="aa" cx="126.63" cy="-232.97" fx="126.63" fy="-232.97" r="619.44" xlink:href="#d"/><radialGradient id="ab" cx="86.4" cy="-189.94" fx="86.4" fy="-189.94" r="526.13" xlink:href="#d"/><radialGradient id="ac" cx="-393.55" cy="-40.25" fx="-393.55" fy="-40.25" r="984.54" xlink:href="#d"/><radialGradient id="ad" cx="174.9" cy="-405.95" fx="174.9" fy="-405.95" r="839.2" xlink:href="#d"/><radialGradient id="ae" cx="229.63" cy="-252.99" fx="229.63" fy="-252.99" r="576.78" xlink:href="#d"/><radialGradient id="af" cx="140.66" cy="-123.51" fx="140.66" fy="-123.51" r="627.45" xlink:href="#d"/><radialGradient id="ag" cx="110.73" cy="101.96" fx="110.73" fy="101.96" r="376.91" xlink:href="#d"/><radialGradient id="ah" cx="-406.07" cy="344.83" fx="-406.07" fy="344.83" r="816.73" xlink:href="#d"/><radialGradient id="ai" cx="205.78" cy="-432.61" fx="205.78" fy="-432.61" r="962.67" xlink:href="#d"/></defs><g id="c"><text transform="translate(82.5 451.82)" style="fill:#3d3938; font-family:Montserrat-ExtraBold, Montserrat; font-size:6.43px; font-weight:700; letter-spacing:1.4em;"><tspan x="0" y="0">DASHBOARD</tspan></text><text transform="translate(83.31 437.42)" style="fill:#3d3938; font-family:Montserrat-Black, Montserrat; font-size:34.04px; font-weight:800; letter-spacing:.2em;"><tspan x="0" y="0">XRPL</tspan></text><path d="m171.59,256.35c1-32.7-19.96-30.06-30.03-11.73-9.49,22.15,17.31,41.62,29.26,59.92-11.79-3.91-18.18,3.38-5.05,10.53,16.76,9.13,21.73,27.95,16.97,44.46-1.03-11.86-9.46-14.62-16.78,8.6-8.77,27.85-39.44,31.82-58.66,15.3,10.05,9.19,23.45,14.79,38.14,14.79,31.25,0,56.57-25.34,56.57-56.59,0-33.78-31.32-55.48-30.43-85.28Z" style="fill:url(#d); fill-rule:evenodd;"/><path d="m165.78,315.07c16.76,9.13,21.73,27.95,16.97,44.46,4.2,31.89,23.83-24.5-16.97-44.46Z" style="fill:url(#e); fill-rule:evenodd;"/><path d="m141.56,244.63c-9.49,22.15,17.31,41.62,29.26,59.92,17.46,7.99,8.29-3.76-3.3-16.24-12.38-13.35-32.71-23.69-25.96-43.68Z" style="fill:url(#f); fill-rule:evenodd;"/><path d="m165.97,368.14c-.67,2.14-1.46,4.12-2.39,5.99,7.67-15.03,16.26-23.18,19.17-14.59-1.03-11.86-9.46-14.62-16.78,8.6Z" style="fill:url(#g); fill-rule:evenodd;"/><path d="m165.78,315.07c-5.6-4.74-3.54-12.01,5.05-10.53-11.79-3.91-18.18,3.38-5.05,10.53Z" style="fill:url(#h); fill-rule:evenodd;"/><path d="m171.59,256.35c1-32.7-19.96-30.06-30.03-11.73,16.95-15.54,24.93,13.77,34.34,32.75-2.78-6.71-4.54-13.61-4.32-21.02Z" style="fill:url(#i); fill-rule:evenodd;"/><path d="m123.66,329.1c2.35-7.93,6.59-15.39,8.5-23.47,5.02-21.21-4.64-24.32-16.12-16.81-9.74,8.6-14.53,24.93-11.59,40.57,3.99-11.41,11.43-13.77,9.23,4.36-2.33,19.11,13.62,37.36,35.7,28.68-14.4,4.97-33.54-7.1-25.72-33.34Z" style="fill:url(#j); fill-rule:evenodd;"/><path d="m117.63,332.51c3.81-13.94-.21-16.07-4.83-11.07,1.18,1.66,1.7,5.57.88,12.32-1.29,10.46,2.91,20.64,10.59,26.32-7.74-6.51-9.43-17.43-6.65-27.58Z" style="fill:url(#k); fill-rule:evenodd;"/><path d="m104.45,329.4c1.22-3.48,2.76-6.12,4.24-7.6-3.39-12.55-.97-23.56,7.35-32.97-9.74,8.6-14.53,24.93-11.59,40.57Z" style="fill:url(#l); fill-rule:evenodd;"/><path d="m165.78,315.07c-13.13-7.16-6.74-14.44,5.05-10.53-11.95-18.3-38.75-37.76-29.26-59.92-4.75,8.66-7.08,20.82-3.51,34.42,5.18,19.76,23.98,36.27,25.39,57.02.9,13.04-4.15,21.26-11.02,25.04-.99.54-2,.99-3.03,1.35-22.08,8.68-38.03-9.58-35.7-28.68,2.2-18.14-5.24-15.77-9.23-4.36-2.94-15.64,1.85-31.97,11.59-40.57-12.52,8.19-27.17,29.04-27.17,52.81,0,16.55,7.11,31.45,18.43,41.8,19.23,16.52,49.89,12.55,58.66-15.3,7.32-23.23,15.75-20.46,16.78-8.6,4.76-16.51-.21-35.33-16.97-44.46Z" style="fill:url(#m); fill-rule:evenodd;"/><path d="m165.78,315.07c-2.87-1.55-4.8-3.12-5.95-4.57-4.14,2-3.51,6.77,5.63,10.58,16.33,6.81,18.97,24.65,17.28,38.45,4.76-16.51-.21-35.33-16.97-44.46Z" style="fill:url(#n); fill-rule:evenodd;"/><path d="m141.56,244.63c-3.33,6.06-5.47,13.83-5.23,22.63,6.95,13.95,24.47,25.44,34.49,37.29-11.95-18.3-38.75-37.76-29.26-59.92Z" style="fill:url(#o); fill-rule:evenodd;"/><path d="m104.45,329.4c-2.94-15.64,1.85-31.97,11.59-40.57-20.79,16.52-23.29,63.49-11.59,40.57Z" style="fill:url(#p); fill-rule:evenodd;"/><path d="m104.45,329.4c3.73-7.05,9.41-4.76,9.23,4.36,2.2-18.14-5.24-15.77-9.23-4.36Z" style="fill:url(#q); fill-rule:evenodd;"/><path d="m91.1,325.44c-1.41,5.15-2.23,10.59-2.23,16.19,0,16.55,7.11,31.45,18.43,41.8,19.23,16.52,49.89,12.55,58.66-15.3-36.2,29.49-80.65,1.25-74.87-42.69Z" style="fill:url(#r); fill-rule:evenodd;"/><path d="m161.46,362.62c-5.02,29.12-34.43,34.87-54.15,20.81,19.23,16.52,49.89,12.55,58.66-15.3,3.6-11.43,7.47-16.57,10.59-17.42-2.91-10.82-11.05-11.58-15.1,11.91Z" style="fill:url(#s); fill-rule:evenodd;"/><path d="m231.67,70.45c2.8-91.58-55.9-84.18-84.1-32.84-26.57,62.05,48.49,116.57,81.96,167.82-33.01-10.96-50.92,9.46-14.14,29.5,46.94,25.56,60.87,78.28,47.53,124.51-2.88-33.22-26.48-40.96-46.98,24.1-24.56,77.99-110.46,89.12-164.3,42.84,28.16,25.73,65.69,41.42,106.81,41.42,87.53,0,158.45-70.96,158.45-158.49,0-94.6-87.73-155.39-85.22-238.86Z" style="fill:url(#t); fill-rule:evenodd;"/><path d="m215.39,234.92c46.94,25.56,60.87,78.28,47.53,124.51,11.75,89.32,66.73-68.62-47.53-124.51Z" style="fill:url(#u); fill-rule:evenodd;"/><path d="m147.56,37.6c-26.57,62.05,48.49,116.57,81.96,167.82,48.91,22.38,23.23-10.54-9.24-45.48-34.68-37.4-91.63-66.36-72.72-122.34Z" style="fill:url(#v); fill-rule:evenodd;"/><path d="m215.93,383.53c-1.88,5.98-4.1,11.55-6.7,16.78,21.47-42.09,45.53-64.93,53.69-40.87-2.88-33.22-26.48-40.96-46.98,24.1Z" style="fill:url(#w); fill-rule:evenodd;"/><path d="m215.39,234.92c-15.69-13.26-9.92-33.64,14.14-29.5-33.01-10.96-50.92,9.46-14.14,29.5Z" style="fill:url(#x); fill-rule:evenodd;"/><path d="m231.67,70.45c2.8-91.58-55.9-84.18-84.1-32.84,47.49-43.51,69.83,38.58,96.19,91.71-7.78-18.79-12.72-38.12-12.09-58.87Z" style="fill:url(#y); fill-rule:evenodd;"/><path d="m97.44,274.21c6.58-22.22,18.45-43.1,23.81-65.73,14.06-59.41-13.01-68.12-45.14-47.07-27.28,24.1-40.71,69.83-32.47,113.63,11.17-31.96,32.01-38.58,25.86,12.22-6.53,53.51,38.16,104.64,99.99,80.33-40.34,13.93-93.93-19.88-72.05-93.39Z" style="fill:url(#z); fill-rule:evenodd;"/><path d="m80.54,283.74c10.67-39.03-.59-45.02-13.51-31,3.3,4.65,4.77,15.61,2.47,34.52-3.6,29.29,8.16,57.82,29.66,73.72-21.67-18.24-26.4-48.83-18.62-77.24Z" style="fill:url(#aa); fill-rule:evenodd;"/><path d="m43.64,275.04c3.43-9.75,7.74-17.15,11.88-21.3-9.49-35.14-2.72-65.98,20.58-92.34-27.28,24.1-40.71,69.83-32.47,113.63Z" style="fill:url(#ab); fill-rule:evenodd;"/><path d="m215.39,234.92c-36.78-20.04-18.87-40.46,14.14-29.5-33.47-51.25-108.53-105.77-81.96-167.82-13.3,24.27-19.83,58.33-9.83,96.4,14.52,55.35,67.15,101.59,71.13,159.7,2.51,36.53-11.63,59.54-30.87,70.12-2.76,1.51-5.61,2.76-8.5,3.77-61.84,24.31-106.52-26.82-99.99-80.33,6.15-50.79-14.69-44.18-25.86-12.22-8.24-43.8,5.19-89.54,32.47-113.63C41.04,184.33,0,242.74,0,309.31c0,46.36,19.91,88.07,51.63,117.07,53.85,46.27,139.74,35.15,164.3-42.84,20.5-65.06,44.1-57.32,46.98-24.1,13.34-46.23-.59-98.95-47.53-124.51Z" style="fill:url(#ac); fill-rule:evenodd;"/><path d="m215.39,234.92c-8.04-4.35-13.44-8.75-16.66-12.8-11.59,5.61-9.83,18.96,15.78,29.62,45.73,19.08,53.13,69.04,48.41,107.7,13.34-46.23-.59-98.95-47.53-124.51Z" style="fill:url(#ad); fill-rule:evenodd;"/><path d="m147.56,37.6c-9.33,16.99-15.31,38.74-14.64,63.39,19.46,39.08,68.54,71.25,96.61,104.43-33.47-51.25-108.53-105.77-81.96-167.82Z" style="fill:url(#ae); fill-rule:evenodd;"/><path d="m43.64,275.04c-8.24-43.8,5.19-89.54,32.47-113.63-58.24,46.27-65.23,177.82-32.47,113.63Z" style="fill:url(#af); fill-rule:evenodd;"/><path d="m43.64,275.04c10.46-19.75,26.36-13.34,25.86,12.22,6.15-50.79-14.69-44.18-25.86-12.22Z" style="fill:url(#ag); fill-rule:evenodd;"/><path d="m6.23,263.95c-3.94,14.43-6.23,29.67-6.23,45.35,0,46.36,19.91,88.07,51.63,117.07,53.85,46.27,139.74,35.15,164.3-42.84-101.38,82.59-225.89,3.51-209.7-119.58Z" style="fill:url(#ah); fill-rule:evenodd;"/><path d="m203.3,368.09c-14.06,81.55-96.44,97.65-151.67,58.28,53.85,46.27,139.74,35.15,164.3-42.84,10.09-32.01,20.92-46.4,29.67-48.78-8.16-30.29-30.96-32.43-42.3,33.35Z" style="fill:url(#ai); fill-rule:evenodd;"/></g></svg>